<svg width="22" height="23" viewBox="0 0 22 23" fill="none" xmlns="http://www.w3.org/2000/svg">
<path d="M19.25 4.3125H2.75C2.38533 4.3125 2.03559 4.46395 1.77773 4.73353C1.51987 5.00312 1.375 5.36875 1.375 5.75V17.25C1.375 17.6312 1.51987 17.9969 1.77773 18.2665C2.03559 18.536 2.38533 18.6875 2.75 18.6875H19.25C19.6147 18.6875 19.9644 18.536 20.2223 18.2665C20.4801 17.9969 20.625 17.6312 20.625 17.25V5.75C20.625 5.36875 20.4801 5.00312 20.2223 4.73353C19.9644 4.46395 19.6147 4.3125 19.25 4.3125ZM17.7375 5.75L11 10.6231L4.2625 5.75H17.7375ZM2.75 17.25V6.40406L10.6081 12.0894C10.7232 12.1728 10.8599 12.2176 11 12.2176C11.1401 12.2176 11.2768 12.1728 11.3919 12.0894L19.25 6.40406V17.25H2.75Z" fill="black"/>
</svg>
