<svg width="183" height="31" viewBox="0 0 183 31" fill="none" xmlns="http://www.w3.org/2000/svg">
<path d="M17.3608 1.96094V16.689C17.3608 19.0301 16.609 20.8869 15.1055 22.2593C13.612 23.6216 11.619 24.3027 9.12646 24.3027C6.60368 24.3027 4.60059 23.6317 3.11719 22.2896C1.63379 20.9373 0.89209 19.0654 0.89209 16.6738V1.96094H4.70654V16.7041C4.70654 18.1774 5.07992 19.3026 5.82666 20.0796C6.5734 20.8566 7.67334 21.2451 9.12646 21.2451C12.0731 21.2451 13.5464 19.6911 13.5464 16.583V1.96094H17.3608ZM25.8144 24H21.9999V1.96094H25.8144V24ZM31.5131 25.8921H28.622L37.2953 1.96094H40.1864L31.5131 25.8921ZM59.5233 1.96094V16.689C59.5233 19.0301 58.7715 20.8869 57.2679 22.2593C55.7744 23.6216 53.7814 24.3027 51.2889 24.3027C48.7661 24.3027 46.763 23.6317 45.2796 22.2896C43.7962 20.9373 43.0545 19.0654 43.0545 16.6738V1.96094H46.869V16.7041C46.869 18.1774 47.2423 19.3026 47.9891 20.0796C48.7358 20.8566 49.8358 21.2451 51.2889 21.2451C54.2355 21.2451 55.7088 19.6911 55.7088 16.583V1.96094H59.5233ZM71.5188 9.92285L76.1506 1.96094H80.5706L73.9104 12.8896L80.7219 24H76.2566L71.5188 15.917L66.7659 24H62.3157L69.1423 12.8896L62.4671 1.96094H66.887L71.5188 9.92285ZM90.8478 15.6899C90.8478 13.1672 91.4331 11.1439 92.6037 9.62012C93.7742 8.08626 95.3434 7.31934 97.3112 7.31934C99.0468 7.31934 100.45 7.9248 101.519 9.13574V0.75H105.197V24H101.867L101.686 22.3047C100.586 23.6367 99.1175 24.3027 97.2809 24.3027C95.3636 24.3027 93.8095 23.5308 92.6188 21.9868C91.4381 20.4429 90.8478 18.3439 90.8478 15.6899ZM94.526 16.0078C94.526 17.6729 94.8439 18.9746 95.4796 19.9131C96.1255 20.8415 97.0387 21.3057 98.2194 21.3057C99.723 21.3057 100.823 20.6346 101.519 19.2925V12.2993C100.843 10.9875 99.7532 10.3315 98.2496 10.3315C97.0589 10.3315 96.1406 10.8058 95.4948 11.7544C94.8489 12.6929 94.526 14.1107 94.526 16.0078ZM116.557 24.3027C114.226 24.3027 112.334 23.5711 110.881 22.1079C109.438 20.6346 108.716 18.6769 108.716 16.2349V15.7808C108.716 14.146 109.029 12.6878 109.655 11.4062C110.291 10.1146 111.179 9.11051 112.319 8.39404C113.459 7.67757 114.731 7.31934 116.133 7.31934C118.364 7.31934 120.084 8.03076 121.295 9.45361C122.516 10.8765 123.127 12.8896 123.127 15.4932V16.9766H112.425C112.536 18.3288 112.985 19.3984 113.772 20.1855C114.569 20.9727 115.568 21.3662 116.769 21.3662C118.454 21.3662 119.827 20.6851 120.886 19.3228L122.869 21.2148C122.213 22.1937 121.335 22.9556 120.235 23.5005C119.146 24.0353 117.92 24.3027 116.557 24.3027ZM116.118 10.271C115.109 10.271 114.292 10.6242 113.666 11.3306C113.051 12.0369 112.657 13.0208 112.485 14.2822H119.494V14.0098C119.413 12.7786 119.085 11.8503 118.51 11.2246C117.935 10.5889 117.137 10.271 116.118 10.271ZM135.485 19.5498C135.485 18.8939 135.213 18.3944 134.668 18.0513C134.133 17.7082 133.24 17.4054 131.989 17.1431C130.737 16.8807 129.693 16.5477 128.855 16.144C127.019 15.256 126.101 13.9694 126.101 12.2842C126.101 10.8714 126.696 9.69076 127.887 8.74219C129.077 7.79362 130.591 7.31934 132.428 7.31934C134.385 7.31934 135.965 7.80371 137.166 8.77246C138.376 9.74121 138.982 10.9976 138.982 12.5415H135.304C135.304 11.8351 135.041 11.2498 134.517 10.7856C133.992 10.3114 133.296 10.0742 132.428 10.0742C131.62 10.0742 130.959 10.2609 130.445 10.6343C129.94 11.0076 129.688 11.5072 129.688 12.1328C129.688 12.6979 129.925 13.1369 130.399 13.4497C130.874 13.7625 131.832 14.0804 133.275 14.4033C134.718 14.7161 135.849 15.0946 136.666 15.5386C137.494 15.9725 138.104 16.4972 138.498 17.1128C138.901 17.7284 139.103 18.4751 139.103 19.353C139.103 20.8263 138.493 22.0221 137.272 22.9404C136.05 23.8486 134.451 24.3027 132.473 24.3027C131.131 24.3027 129.935 24.0605 128.886 23.5762C127.836 23.0918 127.019 22.4258 126.434 21.5781C125.848 20.7305 125.556 19.8172 125.556 18.8384H129.128C129.178 19.7062 129.506 20.3773 130.112 20.8516C130.717 21.3158 131.52 21.5479 132.519 21.5479C133.487 21.5479 134.224 21.3662 134.729 21.0029C135.233 20.6296 135.485 20.1452 135.485 19.5498ZM146.542 24H142.864V7.62207H146.542V24ZM142.637 3.36865C142.637 2.80355 142.814 2.33431 143.167 1.96094C143.53 1.58757 144.045 1.40088 144.711 1.40088C145.377 1.40088 145.892 1.58757 146.255 1.96094C146.618 2.33431 146.8 2.80355 146.8 3.36865C146.8 3.92367 146.618 4.38786 146.255 4.76123C145.892 5.12451 145.377 5.30615 144.711 5.30615C144.045 5.30615 143.53 5.12451 143.167 4.76123C142.814 4.38786 142.637 3.92367 142.637 3.36865ZM150.228 15.6899C150.228 13.147 150.823 11.1187 152.014 9.60498C153.215 8.08122 154.804 7.31934 156.782 7.31934C158.649 7.31934 160.117 7.97021 161.187 9.27197L161.353 7.62207H164.668V23.5005C164.668 25.6499 163.997 27.3452 162.655 28.5864C161.323 29.8276 159.522 30.4482 157.251 30.4482C156.051 30.4482 154.875 30.196 153.725 29.6914C152.584 29.1969 151.716 28.5461 151.121 27.7388L152.862 25.5288C153.992 26.8709 155.385 27.542 157.039 27.542C158.26 27.542 159.224 27.209 159.931 26.543C160.637 25.887 160.99 24.9183 160.99 23.6367V22.5317C159.931 23.7124 158.518 24.3027 156.752 24.3027C154.835 24.3027 153.265 23.5409 152.044 22.0171C150.833 20.4933 150.228 18.3843 150.228 15.6899ZM153.891 16.0078C153.891 17.6527 154.224 18.9494 154.89 19.8979C155.566 20.8364 156.5 21.3057 157.69 21.3057C159.174 21.3057 160.274 20.6699 160.99 19.3984V12.1934C160.294 10.9521 159.204 10.3315 157.721 10.3315C156.51 10.3315 155.566 10.8109 154.89 11.7695C154.224 12.7282 153.891 14.141 153.891 16.0078ZM172.183 7.62207L172.289 9.51416C173.5 8.05094 175.09 7.31934 177.057 7.31934C180.468 7.31934 182.204 9.27197 182.264 13.1772V24H178.586V13.3892C178.586 12.3498 178.359 11.5828 177.905 11.0884C177.461 10.5838 176.73 10.3315 175.71 10.3315C174.227 10.3315 173.122 11.0026 172.395 12.3447V24H168.717V7.62207H172.183Z" fill="black"/>
<path d="M17.3608 1.96094H18.3608V0.960938H17.3608V1.96094ZM15.1055 22.2593L15.7794 22.9981L15.7796 22.9979L15.1055 22.2593ZM3.11719 22.2896L2.44351 23.0286L2.44627 23.0311L3.11719 22.2896ZM0.89209 1.96094V0.960938H-0.10791V1.96094H0.89209ZM4.70654 1.96094H5.70654V0.960938H4.70654V1.96094ZM13.5464 1.96094V0.960938H12.5464V1.96094H13.5464ZM16.3608 1.96094V16.689H18.3608V1.96094H16.3608ZM16.3608 16.689C16.3608 18.7955 15.6954 20.3669 14.4313 21.5207L15.7796 22.9979C17.5227 21.4068 18.3608 19.2648 18.3608 16.689H16.3608ZM14.4316 21.5205C13.1627 22.6778 11.4304 23.3027 9.12646 23.3027V25.3027C11.8075 25.3027 14.0612 24.5653 15.7794 22.9981L14.4316 21.5205ZM9.12646 23.3027C6.78446 23.3027 5.04326 22.6836 3.7881 21.548L2.44627 23.0311C4.15791 24.5797 6.4229 25.3027 9.12646 25.3027V23.3027ZM3.79086 21.5505C2.55505 20.424 1.89209 18.8428 1.89209 16.6738H-0.10791C-0.10791 19.2881 0.712529 21.4507 2.44351 23.0286L3.79086 21.5505ZM1.89209 16.6738V1.96094H-0.10791V16.6738H1.89209ZM0.89209 2.96094H4.70654V0.960938H0.89209V2.96094ZM3.70654 1.96094V16.7041H5.70654V1.96094H3.70654ZM3.70654 16.7041C3.70654 18.3392 4.12263 19.7496 5.10565 20.7725L6.54767 19.3867C6.0372 18.8555 5.70654 18.0156 5.70654 16.7041H3.70654ZM5.10565 20.7725C6.09957 21.8067 7.49939 22.2451 9.12646 22.2451V20.2451C7.84729 20.2451 7.04724 19.9065 6.54767 19.3867L5.10565 20.7725ZM9.12646 22.2451C10.7679 22.2451 12.1792 21.8096 13.1671 20.7676C14.1455 19.7355 14.5464 18.2783 14.5464 16.583H12.5464C12.5464 17.9958 12.2106 18.8696 11.7157 19.3916C11.2303 19.9036 10.4316 20.2451 9.12646 20.2451V22.2451ZM14.5464 16.583V1.96094H12.5464V16.583H14.5464ZM13.5464 2.96094H17.3608V0.960938H13.5464V2.96094ZM25.8144 24V25H26.8144V24H25.8144ZM21.9999 24H20.9999V25H21.9999V24ZM21.9999 1.96094V0.960938H20.9999V1.96094H21.9999ZM25.8144 1.96094H26.8144V0.960938H25.8144V1.96094ZM25.8144 23H21.9999V25H25.8144V23ZM22.9999 24V1.96094H20.9999V24H22.9999ZM21.9999 2.96094H25.8144V0.960938H21.9999V2.96094ZM24.8144 1.96094V24H26.8144V1.96094H24.8144ZM31.5131 25.8921V26.8921H32.2143L32.4532 26.2328L31.5131 25.8921ZM28.622 25.8921L27.6818 25.5513L27.1959 26.8921H28.622V25.8921ZM37.2953 1.96094V0.960938H36.5941L36.3551 1.6202L37.2953 1.96094ZM40.1864 1.96094L41.1266 2.30168L41.6125 0.960938H40.1864V1.96094ZM31.5131 24.8921H28.622V26.8921H31.5131V24.8921ZM29.5621 26.2328L38.2355 2.30168L36.3551 1.6202L27.6818 25.5513L29.5621 26.2328ZM37.2953 2.96094H40.1864V0.960938H37.2953V2.96094ZM39.2462 1.6202L30.5729 25.5513L32.4532 26.2328L41.1266 2.30168L39.2462 1.6202ZM59.5233 1.96094H60.5233V0.960938H59.5233V1.96094ZM57.2679 22.2593L57.9418 22.9981L57.942 22.9979L57.2679 22.2593ZM45.2796 22.2896L44.6059 23.0286L44.6087 23.0311L45.2796 22.2896ZM43.0545 1.96094V0.960938H42.0545V1.96094H43.0545ZM46.869 1.96094H47.869V0.960938H46.869V1.96094ZM55.7088 1.96094V0.960938H54.7088V1.96094H55.7088ZM58.5233 1.96094V16.689H60.5233V1.96094H58.5233ZM58.5233 16.689C58.5233 18.7955 57.8578 20.3669 56.5937 21.5207L57.942 22.9979C59.6852 21.4068 60.5233 19.2648 60.5233 16.689H58.5233ZM56.594 21.5205C55.3252 22.6778 53.5929 23.3027 51.2889 23.3027V25.3027C53.9699 25.3027 56.2236 24.5653 57.9418 22.9981L56.594 21.5205ZM51.2889 23.3027C48.9469 23.3027 47.2057 22.6836 45.9505 21.548L44.6087 23.0311C46.3203 24.5797 48.5853 25.3027 51.2889 25.3027V23.3027ZM45.9533 21.5505C44.7175 20.424 44.0545 18.8428 44.0545 16.6738H42.0545C42.0545 19.2881 42.875 21.4507 44.6059 23.0286L45.9533 21.5505ZM44.0545 16.6738V1.96094H42.0545V16.6738H44.0545ZM43.0545 2.96094H46.869V0.960938H43.0545V2.96094ZM45.869 1.96094V16.7041H47.869V1.96094H45.869ZM45.869 16.7041C45.869 18.3392 46.2851 19.7496 47.2681 20.7725L48.7101 19.3867C48.1996 18.8555 47.869 18.0156 47.869 16.7041H45.869ZM47.2681 20.7725C48.262 21.8067 49.6618 22.2451 51.2889 22.2451V20.2451C50.0097 20.2451 49.2097 19.9065 48.7101 19.3867L47.2681 20.7725ZM51.2889 22.2451C52.9304 22.2451 54.3416 21.8096 55.3295 20.7676C56.308 19.7355 56.7088 18.2783 56.7088 16.583H54.7088C54.7088 17.9958 54.373 18.8696 53.8781 19.3916C53.3927 19.9036 52.594 20.2451 51.2889 20.2451V22.2451ZM56.7088 16.583V1.96094H54.7088V16.583H56.7088ZM55.7088 2.96094H59.5233V0.960938H55.7088V2.96094ZM71.5188 9.92285L70.6544 10.4257L71.5188 11.9115L72.3832 10.4257L71.5188 9.92285ZM76.1506 1.96094V0.960938H75.5755L75.2863 1.45809L76.1506 1.96094ZM80.5706 1.96094L81.4245 2.48133L82.3511 0.960938H80.5706V1.96094ZM73.9104 12.8896L73.0565 12.3693L72.7384 12.8912L73.0579 13.4123L73.9104 12.8896ZM80.7219 24V25H82.508L81.5745 23.4773L80.7219 24ZM76.2566 24L75.3939 24.5057L75.6836 25H76.2566V24ZM71.5188 15.917L72.3815 15.4113L71.5202 13.9418L70.6568 15.4101L71.5188 15.917ZM66.7659 24V25H67.3379L67.6279 24.5069L66.7659 24ZM62.3157 24L61.4637 23.4765L60.5276 25H62.3157V24ZM69.1423 12.8896L69.9944 13.4132L70.3151 12.8912L69.9957 12.3684L69.1423 12.8896ZM62.4671 1.96094V0.960938H60.6845L61.6137 2.4822L62.4671 1.96094ZM66.887 1.96094L67.7513 1.45809L67.4621 0.960938H66.887V1.96094ZM72.3832 10.4257L77.015 2.46379L75.2863 1.45809L70.6544 9.42L72.3832 10.4257ZM76.1506 2.96094H80.5706V0.960938H76.1506V2.96094ZM79.7166 1.44054L73.0565 12.3693L74.7643 13.41L81.4245 2.48133L79.7166 1.44054ZM73.0579 13.4123L79.8694 24.5227L81.5745 23.4773L74.7629 12.367L73.0579 13.4123ZM80.7219 23H76.2566V25H80.7219V23ZM77.1193 23.4943L72.3815 15.4113L70.6561 16.4227L75.3939 24.5057L77.1193 23.4943ZM70.6568 15.4101L65.9039 23.4931L67.6279 24.5069L72.3808 16.4239L70.6568 15.4101ZM66.7659 23H62.3157V25H66.7659V23ZM63.1677 24.5235L69.9944 13.4132L68.2903 12.3661L61.4637 23.4765L63.1677 24.5235ZM69.9957 12.3684L63.3205 1.43968L61.6137 2.4822L68.2889 13.4109L69.9957 12.3684ZM62.4671 2.96094H66.887V0.960938H62.4671V2.96094ZM66.0226 2.46379L70.6544 10.4257L72.3832 9.42L67.7513 1.45809L66.0226 2.46379ZM92.6037 9.62012L93.3967 10.2293L93.3986 10.2268L92.6037 9.62012ZM101.519 9.13574L100.77 9.79778L102.519 11.7783V9.13574H101.519ZM101.519 0.75V-0.25H100.519V0.75H101.519ZM105.197 0.75H106.197V-0.25H105.197V0.75ZM105.197 24V25H106.197V24H105.197ZM101.867 24L100.873 24.1065L100.969 25H101.867V24ZM101.686 22.3047L102.68 22.1982L102.427 19.8365L100.915 21.668L101.686 22.3047ZM92.6188 21.9868L91.8244 22.5943L91.8269 22.5975L92.6188 21.9868ZM95.4796 19.9131L94.6516 20.474L94.6587 20.4842L95.4796 19.9131ZM101.519 19.2925L102.407 19.753L102.519 19.5364V19.2925H101.519ZM101.519 12.2993H102.519V12.0568L102.408 11.8412L101.519 12.2993ZM95.4948 11.7544L96.3186 12.3213L96.3214 12.3172L95.4948 11.7544ZM91.8478 15.6899C91.8478 13.3184 92.397 11.5305 93.3967 10.2293L91.8106 9.01091C90.4691 10.7572 89.8478 13.0159 89.8478 15.6899H91.8478ZM93.3986 10.2268C94.3756 8.94653 95.6479 8.31934 97.3112 8.31934V6.31934C95.0388 6.31934 93.1728 7.22599 91.8087 9.01344L93.3986 10.2268ZM97.3112 8.31934C98.7842 8.31934 99.9052 8.81911 100.77 9.79778L102.269 8.47371C100.994 7.0305 99.3095 6.31934 97.3112 6.31934V8.31934ZM102.519 9.13574V0.75H100.519V9.13574H102.519ZM101.519 1.75H105.197V-0.25H101.519V1.75ZM104.197 0.75V24H106.197V0.75H104.197ZM105.197 23H101.867V25H105.197V23ZM102.862 23.8935L102.68 22.1982L100.691 22.4112L100.873 24.1065L102.862 23.8935ZM100.915 21.668C100.018 22.7538 98.8407 23.3027 97.2809 23.3027V25.3027C99.3943 25.3027 101.154 24.5196 102.457 22.9414L100.915 21.668ZM97.2809 23.3027C95.6797 23.3027 94.4158 22.6794 93.4106 21.3761L91.8269 22.5975C93.2033 24.3821 95.0474 25.3027 97.2809 25.3027V23.3027ZM93.4131 21.3794C92.4071 20.0637 91.8478 18.2035 91.8478 15.6899H89.8478C89.8478 18.4843 90.4692 20.822 91.8244 22.5943L93.4131 21.3794ZM93.526 16.0078C93.526 17.784 93.8626 19.3091 94.6517 20.4739L96.3075 19.3522C95.8251 18.6401 95.526 17.5617 95.526 16.0078H93.526ZM94.6587 20.4842C95.501 21.695 96.7285 22.3057 98.2194 22.3057V20.3057C97.349 20.3057 96.7499 19.988 96.3005 19.342L94.6587 20.4842ZM98.2194 22.3057C99.1238 22.3057 99.9614 22.1023 100.693 21.656C101.424 21.21 101.989 20.5577 102.407 19.753L100.632 18.832C100.353 19.3694 100.02 19.7237 99.6512 19.9487C99.2827 20.1735 98.8185 20.3057 98.2194 20.3057V22.3057ZM102.519 19.2925V12.2993H100.519V19.2925H102.519ZM102.408 11.8412C101.999 11.0472 101.438 10.4048 100.71 9.96669C99.9835 9.52919 99.1498 9.33154 98.2496 9.33154V11.3315C98.8531 11.3315 99.3161 11.4619 99.6791 11.6803C100.041 11.8981 100.363 12.2396 100.63 12.7574L102.408 11.8412ZM98.2496 9.33154C96.7429 9.33154 95.5084 9.95744 94.6682 11.1916L96.3214 12.3172C96.7728 11.6542 97.3749 11.3315 98.2496 11.3315V9.33154ZM94.671 11.1875C93.8568 12.3706 93.526 14.0297 93.526 16.0078H95.526C95.526 14.1917 95.8411 13.0151 96.3185 12.3213L94.671 11.1875ZM110.881 22.1079L110.167 22.8077L110.171 22.8126L110.881 22.1079ZM109.655 11.4062L108.758 10.9647L108.756 10.9675L109.655 11.4062ZM112.319 8.39404L111.787 7.54731L112.319 8.39404ZM121.295 9.45361L120.533 10.1017L120.536 10.1048L121.295 9.45361ZM123.127 16.9766V17.9766H124.127V16.9766H123.127ZM112.425 16.9766V15.9766H111.339L111.428 17.0584L112.425 16.9766ZM113.772 20.1855L113.065 20.8927L113.069 20.8971L113.772 20.1855ZM120.886 19.3228L121.577 18.5993L120.776 17.8355L120.097 18.7088L120.886 19.3228ZM122.869 21.2148L123.7 21.7715L124.168 21.0724L123.56 20.4914L122.869 21.2148ZM120.235 23.5005L120.676 24.3982L120.679 24.3966L120.235 23.5005ZM113.666 11.3306L112.917 10.6675L112.912 10.6736L113.666 11.3306ZM112.485 14.2822L111.495 14.1475L111.34 15.2822H112.485V14.2822ZM119.494 14.2822V15.2822H120.494V14.2822H119.494ZM119.494 14.0098H120.494V13.977L120.492 13.9443L119.494 14.0098ZM118.51 11.2246L117.768 11.8955L117.774 11.9014L118.51 11.2246ZM116.557 23.3027C114.455 23.3027 112.831 22.6521 111.59 21.4033L110.171 22.8126C111.837 24.4901 113.998 25.3027 116.557 25.3027V23.3027ZM111.595 21.4082C110.369 20.1557 109.716 18.4669 109.716 16.2349H107.716C107.716 18.8869 108.507 21.1135 110.167 22.8076L111.595 21.4082ZM109.716 16.2349V15.7808H107.716V16.2349H109.716ZM109.716 15.7808C109.716 14.2758 110.004 12.9712 110.553 11.845L108.756 10.9675C108.055 12.4045 107.716 14.0162 107.716 15.7808H109.716ZM110.552 11.8478C111.112 10.7105 111.878 9.8518 112.851 9.24078L111.787 7.54731C110.479 8.36923 109.469 9.51866 108.758 10.9647L110.552 11.8478ZM112.851 9.24078C113.825 8.62873 114.911 8.31934 116.133 8.31934V6.31934C114.551 6.31934 113.093 6.72641 111.787 7.54731L112.851 9.24078ZM116.133 8.31934C118.133 8.31934 119.55 8.9457 120.533 10.1017L122.057 8.80549C120.619 7.11583 118.594 6.31934 116.133 6.31934V8.31934ZM120.536 10.1048C121.55 11.2868 122.127 13.0361 122.127 15.4932H124.127C124.127 12.7432 123.482 10.4661 122.054 8.80238L120.536 10.1048ZM122.127 15.4932V16.9766H124.127V15.4932H122.127ZM123.127 15.9766H112.425V17.9766H123.127V15.9766ZM111.428 17.0584C111.554 18.593 112.076 19.9035 113.065 20.8927L114.479 19.4784C113.894 18.8934 113.518 18.0645 113.422 16.8947L111.428 17.0584ZM113.069 20.8971C114.068 21.8832 115.326 22.3662 116.769 22.3662V20.3662C115.81 20.3662 115.07 20.0621 114.475 19.474L113.069 20.8971ZM116.769 22.3662C118.772 22.3662 120.432 21.5357 121.676 19.9367L120.097 18.7088C119.222 19.8344 118.137 20.3662 116.769 20.3662V22.3662ZM120.196 20.0462L122.179 21.9383L123.56 20.4914L121.577 18.5993L120.196 20.0462ZM122.038 20.6582C121.484 21.4859 120.742 22.1336 119.792 22.6044L120.679 24.3966C121.929 23.7776 122.943 22.9015 123.7 21.7715L122.038 20.6582ZM119.795 22.6028C118.858 23.0625 117.786 23.3027 116.557 23.3027V25.3027C118.053 25.3027 119.433 25.0082 120.676 24.3982L119.795 22.6028ZM116.118 9.271C114.845 9.271 113.747 9.73062 112.918 10.6675L114.415 11.9936C114.836 11.5178 115.373 11.271 116.118 11.271V9.271ZM112.912 10.6736C112.13 11.5713 111.683 12.7601 111.495 14.1475L113.476 14.417C113.631 13.2816 113.971 12.5026 114.42 11.9875L112.912 10.6736ZM112.485 15.2822H119.494V13.2822H112.485V15.2822ZM120.494 14.2822V14.0098H118.494V14.2822H120.494ZM120.492 13.9443C120.402 12.5854 120.032 11.4027 119.246 10.5478L117.774 11.9014C118.138 12.2978 118.424 12.9719 118.496 14.0752L120.492 13.9443ZM119.251 10.5537C118.451 9.66882 117.362 9.271 116.118 9.271V11.271C116.913 11.271 117.419 11.5089 117.768 11.8955L119.251 10.5537ZM134.668 18.0513L134.128 18.893L134.135 18.8975L134.668 18.0513ZM128.855 16.144L128.42 17.0443L128.421 17.0449L128.855 16.144ZM127.887 8.74219L128.51 9.52435L127.887 8.74219ZM137.166 8.77246L136.538 9.55078L136.541 9.55333L137.166 8.77246ZM138.982 12.5415V13.5415H139.982V12.5415H138.982ZM135.304 12.5415H134.304V13.5415H135.304V12.5415ZM134.517 10.7856L133.846 11.5276L133.854 11.5346L134.517 10.7856ZM130.445 10.6343L129.858 9.82482L129.85 9.83044L130.445 10.6343ZM133.275 14.4033L133.057 15.3792L133.064 15.3806L133.275 14.4033ZM136.666 15.5386L136.189 16.4173L136.195 16.4208L136.202 16.4242L136.666 15.5386ZM138.498 17.1128L137.655 17.6515L137.661 17.6611L138.498 17.1128ZM137.272 22.9404L137.868 23.7428L137.873 23.7396L137.272 22.9404ZM125.556 18.8384V17.8384H124.556V18.8384H125.556ZM129.128 18.8384L130.126 18.7803L130.072 17.8384H129.128V18.8384ZM130.112 20.8516L129.495 21.6388L129.503 21.6452L130.112 20.8516ZM134.729 21.0029L135.313 21.8145L135.323 21.8068L134.729 21.0029ZM136.485 19.5498C136.485 18.5581 136.043 17.7353 135.201 17.205L134.135 18.8975C134.383 19.0534 134.485 19.2297 134.485 19.5498H136.485ZM135.208 17.2096C134.512 16.7633 133.469 16.4316 132.194 16.1643L131.784 18.1218C133.011 18.3792 133.754 18.6531 134.128 18.893L135.208 17.2096ZM132.194 16.1643C130.995 15.9129 130.033 15.6014 129.29 15.2432L128.421 17.0449C129.353 17.494 130.48 17.8485 131.784 18.1218L132.194 16.1643ZM129.291 15.2438C128.481 14.8521 127.941 14.4049 127.603 13.9321C127.273 13.4698 127.101 12.9331 127.101 12.2842H125.101C125.101 13.3205 125.387 14.2697 125.975 15.094C126.556 15.9078 127.394 16.548 128.42 17.0443L129.291 15.2438ZM127.101 12.2842C127.101 11.2021 127.536 10.3001 128.51 9.52435L127.264 7.96003C125.856 9.08142 125.101 10.5408 125.101 12.2842H127.101ZM128.51 9.52435C129.489 8.74424 130.769 8.31934 132.428 8.31934V6.31934C130.413 6.31934 128.666 6.843 127.264 7.96003L128.51 9.52435ZM132.428 8.31934C134.22 8.31934 135.558 8.76039 136.538 9.55077L137.793 7.99415C136.371 6.84703 134.551 6.31934 132.428 6.31934V8.31934ZM136.541 9.55333C137.516 10.3333 137.982 11.3029 137.982 12.5415H139.982C139.982 10.6922 139.237 9.14914 137.79 7.99159L136.541 9.55333ZM138.982 11.5415H135.304V13.5415H138.982V11.5415ZM136.304 12.5415C136.304 11.5514 135.921 10.6924 135.179 10.0366L133.854 11.5346C134.162 11.8072 134.304 12.1189 134.304 12.5415H136.304ZM135.187 10.0438C134.439 9.3677 133.485 9.07422 132.428 9.07422V11.0742C133.107 11.0742 133.545 11.255 133.846 11.5275L135.187 10.0438ZM132.428 9.07422C131.467 9.07422 130.584 9.29778 129.858 9.82486L131.032 11.4437C131.335 11.224 131.774 11.0742 132.428 11.0742V9.07422ZM129.85 9.83044C129.092 10.3917 128.688 11.1889 128.688 12.1328H130.688C130.688 11.8254 130.789 11.6236 131.04 11.4381L129.85 9.83044ZM128.688 12.1328C128.688 13.0362 129.096 13.7878 129.849 14.2845L130.95 12.6149C130.754 12.486 130.688 12.3596 130.688 12.1328H128.688ZM129.849 14.2845C130.496 14.7113 131.627 15.0592 133.057 15.3792L133.494 13.4275C132.038 13.1016 131.251 12.8137 130.95 12.6149L129.849 14.2845ZM133.064 15.3806C134.461 15.6837 135.489 16.0371 136.189 16.4173L137.143 14.6599C136.209 14.1521 134.975 13.7486 133.487 13.426L133.064 15.3806ZM136.202 16.4242C136.917 16.7994 137.378 17.2179 137.655 17.6515L139.34 16.5741C138.83 15.7766 138.07 15.1456 137.13 14.653L136.202 16.4242ZM137.661 17.6611C137.939 18.0846 138.103 18.6318 138.103 19.353H140.103C140.103 18.3184 139.863 17.3721 139.334 16.5644L137.661 17.6611ZM138.103 19.353C138.103 20.4987 137.651 21.4036 136.67 22.1412L137.873 23.7396C139.334 22.6406 140.103 21.154 140.103 19.353H138.103ZM136.675 22.138C135.672 22.8841 134.301 23.3027 132.473 23.3027V25.3027C134.602 25.3027 136.429 24.8131 137.868 23.7428L136.675 22.138ZM132.473 23.3027C131.253 23.3027 130.203 23.0829 129.305 22.6682L128.467 24.4841C129.667 25.0382 131.01 25.3027 132.473 25.3027V23.3027ZM129.305 22.6682C128.398 22.2495 127.728 21.6928 127.257 21.0099L125.611 22.1463C126.31 23.1587 127.275 23.9341 128.467 24.4841L129.305 22.6682ZM127.257 21.0099C126.78 20.3201 126.556 19.6033 126.556 18.8384H124.556C124.556 20.0312 124.916 21.1409 125.611 22.1463L127.257 21.0099ZM125.556 19.8384H129.128V17.8384H125.556V19.8384ZM128.13 18.8964C128.194 20.0093 128.633 20.9634 129.495 21.6388L130.729 20.0643C130.38 19.7912 130.162 19.4031 130.126 18.7803L128.13 18.8964ZM129.503 21.6452C130.331 22.2795 131.368 22.5479 132.519 22.5479V20.5479C131.671 20.5479 131.104 20.352 130.72 20.058L129.503 21.6452ZM132.519 22.5479C133.588 22.5479 134.567 22.3515 135.313 21.8145L134.144 20.1914C133.881 20.3809 133.387 20.5479 132.519 20.5479V22.5479ZM135.323 21.8068C136.067 21.2568 136.485 20.4818 136.485 19.5498H134.485C134.485 19.8085 134.4 20.0023 134.134 20.1991L135.323 21.8068ZM146.542 24V25H147.542V24H146.542ZM142.864 24H141.864V25H142.864V24ZM142.864 7.62207V6.62207H141.864V7.62207H142.864ZM146.542 7.62207H147.542V6.62207H146.542V7.62207ZM143.167 1.96094L142.45 1.26351L142.44 1.27374L143.167 1.96094ZM146.255 4.76123L146.962 5.4684L146.972 5.45859L146.255 4.76123ZM143.167 4.76123L142.44 5.44843L142.45 5.45852L142.46 5.46834L143.167 4.76123ZM146.542 23H142.864V25H146.542V23ZM143.864 24V7.62207H141.864V24H143.864ZM142.864 8.62207H146.542V6.62207H142.864V8.62207ZM145.542 7.62207V24H147.542V7.62207H145.542ZM143.637 3.36865C143.637 3.03144 143.734 2.81662 143.893 2.64814L142.44 1.27374C141.893 1.852 141.637 2.57565 141.637 3.36865H143.637ZM143.884 2.65829C144.01 2.52861 144.236 2.40088 144.711 2.40088V0.400879C143.854 0.400879 143.051 0.646518 142.45 1.26358L143.884 2.65829ZM144.711 2.40088C145.186 2.40088 145.412 2.52861 145.538 2.65829L146.972 1.26358C146.371 0.646518 145.568 0.400879 144.711 0.400879V2.40088ZM145.538 2.65829C145.704 2.82829 145.8 3.03977 145.8 3.36865H147.8C147.8 2.56733 147.533 1.84033 146.972 1.26358L145.538 2.65829ZM145.8 3.36865C145.8 3.682 145.707 3.89025 145.538 4.06388L146.972 5.45859C147.529 4.88547 147.8 4.16534 147.8 3.36865H145.8ZM145.548 4.05412C145.423 4.17891 145.194 4.30615 144.711 4.30615V6.30615C145.56 6.30615 146.36 6.07012 146.962 5.46834L145.548 4.05412ZM144.711 4.30615C144.228 4.30615 143.999 4.17891 143.874 4.05412L142.46 5.46834C143.062 6.07012 143.862 6.30615 144.711 6.30615V4.30615ZM143.893 4.07403C143.731 3.90198 143.637 3.69042 143.637 3.36865H141.637C141.637 4.15691 141.897 4.87374 142.44 5.44843L143.893 4.07403ZM152.014 9.60498L151.229 8.98601L151.228 8.9867L152.014 9.60498ZM161.187 9.27197L160.414 9.90684L161.94 11.7642L162.182 9.37238L161.187 9.27197ZM161.353 7.62207V6.62207H160.449L160.358 7.52166L161.353 7.62207ZM164.668 7.62207H165.668V6.62207H164.668V7.62207ZM162.655 28.5864L161.976 27.8523L161.973 27.8548L162.655 28.5864ZM153.725 29.6914L154.126 28.7756L154.122 28.7739L153.725 29.6914ZM151.121 27.7388L150.335 27.12L149.864 27.7188L150.316 28.3323L151.121 27.7388ZM152.862 25.5288L153.627 24.8847L152.836 23.9456L152.076 24.91L152.862 25.5288ZM159.931 26.543L159.25 25.8102L159.245 25.8154L159.931 26.543ZM160.99 22.5317H161.99V19.9202L160.246 21.8638L160.99 22.5317ZM152.044 22.0171L151.261 22.6393L151.264 22.6424L152.044 22.0171ZM154.89 19.8979L154.072 20.4726L154.079 20.4825L154.89 19.8979ZM160.99 19.3984L161.861 19.8894L161.99 19.6608V19.3984H160.99ZM160.99 12.1934H161.99V11.932L161.862 11.7041L160.99 12.1934ZM154.89 11.7695L154.073 11.1932L154.069 11.199L154.89 11.7695ZM151.228 15.6899C151.228 13.2992 151.787 11.5114 152.8 10.2233L151.228 8.9867C149.86 10.7259 149.228 12.9947 149.228 15.6899H151.228ZM152.799 10.2239C153.806 8.94622 155.104 8.31934 156.782 8.31934V6.31934C154.505 6.31934 152.623 7.21622 151.229 8.98601L152.799 10.2239ZM156.782 8.31934C158.386 8.31934 159.557 8.86313 160.414 9.90684L161.96 8.63711C160.678 7.0773 158.912 6.31934 156.782 6.31934V8.31934ZM162.182 9.37238L162.348 7.72248L160.358 7.52166L160.192 9.17157L162.182 9.37238ZM161.353 8.62207H164.668V6.62207H161.353V8.62207ZM163.668 7.62207V23.5005H165.668V7.62207H163.668ZM163.668 23.5005C163.668 25.4246 163.077 26.8338 161.976 27.8523L163.334 29.3206C164.917 27.8566 165.668 25.8752 165.668 23.5005H163.668ZM161.973 27.8548C160.869 28.8836 159.334 29.4482 157.251 29.4482V31.4482C159.71 31.4482 161.777 30.7717 163.337 29.318L161.973 27.8548ZM157.251 29.4482C156.195 29.4482 155.156 29.2273 154.126 28.7756L153.323 30.6072C154.594 31.1647 155.906 31.4482 157.251 31.4482V29.4482ZM154.122 28.7739C153.106 28.333 152.394 27.7803 151.926 27.1452L150.316 28.3323C151.039 29.3118 152.063 30.0608 153.327 30.6089L154.122 28.7739ZM151.907 28.3575L153.647 26.1476L152.076 24.91L150.335 27.12L151.907 28.3575ZM152.097 26.1729C153.404 27.7252 155.07 28.542 157.039 28.542V26.542C155.699 26.542 154.58 26.0167 153.627 24.8847L152.097 26.1729ZM157.039 28.542C158.447 28.542 159.68 28.1536 160.617 27.2706L159.245 25.8154C158.768 26.2644 158.074 26.542 157.039 26.542V28.542ZM160.611 27.2758C161.582 26.374 161.99 25.1005 161.99 23.6367H159.99C159.99 24.7361 159.692 25.4001 159.25 25.8102L160.611 27.2758ZM161.99 23.6367V22.5317H159.99V23.6367H161.99ZM160.246 21.8638C159.399 22.8079 158.27 23.3027 156.752 23.3027V25.3027C158.766 25.3027 160.462 24.6169 161.734 23.1996L160.246 21.8638ZM156.752 23.3027C155.144 23.3027 153.86 22.6838 152.825 21.3918L151.264 22.6424C152.671 24.3979 154.525 25.3027 156.752 25.3027V23.3027ZM152.827 21.3949C151.802 20.1052 151.228 18.244 151.228 15.6899H149.228C149.228 18.5245 149.865 20.8815 151.261 22.6393L152.827 21.3949ZM152.891 16.0078C152.891 17.7753 153.247 19.2985 154.072 20.4726L155.708 19.3233C155.201 18.6002 154.891 17.5301 154.891 16.0078H152.891ZM154.079 20.4825C154.949 21.6908 156.189 22.3057 157.69 22.3057V20.3057C156.81 20.3057 156.183 19.982 155.701 19.3134L154.079 20.4825ZM157.69 22.3057C159.527 22.3057 160.964 21.4817 161.861 19.8894L160.119 18.9075C159.583 19.8581 158.82 20.3057 157.69 20.3057V22.3057ZM161.99 19.3984V12.1934H159.99V19.3984H161.99ZM161.862 11.7041C160.98 10.1313 159.547 9.33154 157.721 9.33154V11.3315C158.861 11.3315 159.608 11.773 160.118 12.6826L161.862 11.7041ZM157.721 9.33154C156.197 9.33154 154.943 9.95886 154.073 11.1932L155.707 12.3459C156.189 11.6629 156.822 11.3315 157.721 11.3315V9.33154ZM154.069 11.199C153.236 12.3983 152.891 14.0492 152.891 16.0078H154.891C154.891 14.2327 155.212 13.0581 155.711 12.3401L154.069 11.199ZM172.183 7.62207L173.182 7.56616L173.129 6.62207H172.183V7.62207ZM172.289 9.51416L171.291 9.57007L171.434 12.1167L173.06 10.1517L172.289 9.51416ZM182.264 13.1772H183.264V13.1695L183.264 13.1617L182.264 13.1772ZM182.264 24V25H183.264V24H182.264ZM178.586 24H177.586V25H178.586V24ZM177.905 11.0884L177.154 11.749L177.161 11.757L177.169 11.7648L177.905 11.0884ZM172.395 12.3447L171.516 11.8687L171.395 12.0914V12.3447H172.395ZM172.395 24V25H173.395V24H172.395ZM168.717 24H167.717V25H168.717V24ZM168.717 7.62207V6.62207H167.717V7.62207H168.717ZM171.185 7.67798L171.291 9.57007L173.288 9.45825L173.182 7.56616L171.185 7.67798ZM173.06 10.1517C174.073 8.92744 175.375 8.31934 177.057 8.31934V6.31934C174.804 6.31934 172.928 7.17445 171.519 8.87659L173.06 10.1517ZM177.057 8.31934C178.57 8.31934 179.546 8.74595 180.17 9.44818C180.816 10.1751 181.236 11.3648 181.265 13.1927L183.264 13.1617C183.232 11.0844 182.754 9.3452 181.665 8.11945C180.553 6.86904 178.956 6.31934 177.057 6.31934V8.31934ZM181.264 13.1772V24H183.264V13.1772H181.264ZM182.264 23H178.586V25H182.264V23ZM179.586 24V13.3892H177.586V24H179.586ZM179.586 13.3892C179.586 12.2316 179.337 11.1695 178.642 10.412L177.169 11.7648C177.381 11.9962 177.586 12.468 177.586 13.3892H179.586ZM178.656 10.4278C177.942 9.61637 176.868 9.33154 175.71 9.33154V11.3315C176.591 11.3315 176.98 11.5513 177.154 11.749L178.656 10.4278ZM175.71 9.33154C174.813 9.33154 173.981 9.53623 173.25 9.98011C172.521 10.4231 171.948 11.07 171.516 11.8687L173.275 12.8208C173.569 12.2773 173.913 11.9177 174.288 11.6896C174.662 11.4624 175.124 11.3315 175.71 11.3315V9.33154ZM171.395 12.3447V24H173.395V12.3447H171.395ZM172.395 23H168.717V25H172.395V23ZM169.717 24V7.62207H167.717V24H169.717ZM168.717 8.62207H172.183V6.62207H168.717V8.62207Z" fill="black"/>
</svg>
