<svg width="39" height="31" viewBox="0 0 39 31" fill="none" xmlns="http://www.w3.org/2000/svg">
<path d="M19.5 27.16H19.5002C21.8765 27.159 24.2197 26.6938 26.3243 25.8016C28.4288 24.9094 30.2368 23.6147 31.5819 22.0227L31.7035 21.8788L31.6999 21.6906C31.6811 20.6911 31.0436 19.8769 30.1955 19.2413C29.3402 18.6003 28.1889 18.0759 26.9493 17.6609C24.4682 16.8301 21.5042 16.395 19.5 16.395C17.4958 16.395 14.5318 16.8301 12.0507 17.6609C10.8111 18.0759 9.65981 18.6003 8.8045 19.2413C7.95639 19.8769 7.31895 20.6911 7.30009 21.6906L7.29654 21.8789L7.41814 22.0228C10.0403 25.125 14.4969 27.16 19.5 27.16ZM23.9477 5.62054C22.7526 4.67059 21.1517 4.15 19.5 4.15C17.8483 4.15 16.2474 4.67059 15.0523 5.62054C13.8543 6.57281 13.15 7.89224 13.15 9.3C13.15 10.7078 13.8543 12.0272 15.0523 12.9795C16.2474 13.9294 17.8483 14.45 19.5 14.45C21.1517 14.45 22.7526 13.9294 23.9477 12.9795C25.1457 12.0272 25.85 10.7078 25.85 9.3C25.85 7.89224 25.1457 6.57281 23.9477 5.62054ZM12.194 1.65479C14.508 0.892919 16.9908 0.5 19.5 0.5C30.0631 0.5 38.5 7.30643 38.5 15.5C38.5 19.4363 36.5335 23.2421 32.9775 26.0687C29.4185 28.8976 24.5716 30.5 19.5 30.5C16.9908 30.5 14.508 30.1071 12.194 29.3452C9.87997 28.5833 7.7836 27.4686 6.02254 26.0687C2.4665 23.2421 0.5 19.4363 0.5 15.5C0.5 11.5637 2.4665 7.75785 6.02254 4.93126C7.7836 3.53144 9.87997 2.41669 12.194 1.65479Z" fill="black" stroke="black"/>
</svg>
