<svg width="216" height="203" viewBox="0 0 216 203" fill="none" xmlns="http://www.w3.org/2000/svg">
<path d="M108 175.08H108C120.884 175.074 133.569 172.09 144.939 166.391C156.31 160.692 166.018 152.451 173.207 142.391L173.303 142.257L173.3 142.092C173.216 136.827 170.371 132.2 165.907 128.245C161.445 124.291 155.321 120.966 148.563 118.29C135.046 112.939 118.865 110.135 108 110.135C97.1354 110.135 80.9541 112.939 67.4374 118.29C60.6787 120.966 54.5552 124.291 50.0926 128.245C45.6293 132.2 42.7841 136.827 42.7001 142.092L42.6974 142.257L42.7933 142.391C56.8196 162.011 80.8395 175.08 108 175.08ZM131.253 39.0042C125.081 33.2037 116.716 29.95 108 29.95C99.284 29.95 90.9193 33.2037 84.7473 39.0042C78.5743 44.8058 75.1 52.6812 75.1 60.9C75.1 69.1188 78.5743 76.9942 84.7473 82.7958C90.9193 88.5963 99.284 91.85 108 91.85C116.716 91.85 125.081 88.5963 131.253 82.7958C137.426 76.9942 140.9 69.1188 140.9 60.9C140.9 52.6812 137.426 44.8058 131.253 39.0042ZM66.8516 8.19217C79.8964 3.11402 93.8787 0.5 108 0.5C167.155 0.5 215.5 45.6764 215.5 101.5C215.5 128.276 204.182 153.963 184.025 172.907C163.867 191.852 136.52 202.5 108 202.5C93.8787 202.5 79.8964 199.886 66.8516 194.808C53.8068 189.73 41.9559 182.287 31.9749 172.907C11.8178 153.963 0.5 128.276 0.5 101.5C0.5 74.7235 11.8178 49.0369 31.9749 30.093C41.9559 20.7127 53.8068 13.2703 66.8516 8.19217Z" fill="black" stroke="black"/>
</svg>
